# xmcd
#
# Track frame offsets:
#	150
#	12276
#	24031
#	35359
#	46443
#	59312
#	69130
#	85634
#	93387
#	103283
#	116775
#	131714
#	142088
#	153528
#	164059
#	173676
#	183877
#	193912
#	205317
#	213597
#
# Disc length: 2993
#
# Revision: 1
# Processed by: cddbd v1.5.1PL0 Copyright (c) Steve Scherf et al.
# Submitted via: CdAid (MTCDDB.DLL V2003.12.21)
# Normalized: r0:DSETVAR1
#
DISCID=1c0baf14
DTITLE=Various Artist - Country Road Vol. 3
DYEAR=1999
DGENRE=Country
TTITLE0=Don Gibson - Run Boy
TTITLE1=Kenny Rogers - Elvira
TTITLE2=Sonny James - Jenny Lou
TTITLE3=Billie Jo Spears - I´m So Lonely I Could Cry
TTITLE4=Jimmy Read - Let´s Get Together
TTITLE5=Dolly Parton - Release Me
TTITLE6=John Denver - Thank God I´m A Country Boy
TTITLE7=Susan Raye - I´ve Got A Happy Heart
TTITLE8=Johnny Cash - Hey Porter
TTITLE9=Glen Campbell - Rhinestone Cowboy
TTITLE10=Jeannie C. Riley - Harper Valley P.T.A.
TTITLE11=Dave Dudley - Six Days On The Road
TTITLE12=Anne Murray - The Last Thing On My Mind
TTITLE13=Everly Brothers - Bird Dog
TTITLE14=Ned Miller - From A Jack To A King
TTITLE15=Frankie Lane - Mule Skinner Blues
TTITLE16=Buddy Knox - Devil Woman
TTITLE17=Patsy Cline - I´ve Loved And Lost Again
TTITLE18=Roger Miller - Dang Me
TTITLE19=Porter Wagoner - Enough To Make A Grown Man Cry
EXTD=ID3G:   2 YEAR: 1999
EXTT0=
EXTT1=
EXTT2=
EXTT3=
EXTT4=
EXTT5=
EXTT6=
EXTT7=
EXTT8=
EXTT9=
EXTT10=
EXTT11=
EXTT12=
EXTT13=
EXTT14=
EXTT15=
EXTT16=
EXTT17=
EXTT18=
EXTT19=
PLAYORDER=
